<svg xmlns="http://www.w3.org/2000/svg" width="24" height="24" viewBox="0 0 24 24"><path d="M17.69 3.214c0 .667-.52 1.21-1.165 1.21c-.306 0-.6-.128-.816-.355a1.25 1.25 0 0 1-.338-.857c0-.32.122-.628.34-.857c.217-.227.512-.355.819-.355s.602.128.82.355c.217.228.34.538.34.86m-.838 4.209a.96.96 0 0 1-.695-.3a1.02 1.02 0 0 1-.286-.72a1.07 1.07 0 0 1 .16-.573a1 1 0 0 1 .44-.383a.94.94 0 0 1 1.073.217a1.07 1.07 0 0 1 .217 1.122a1 1 0 0 1-.362.462a.95.95 0 0 1-.547.175m-.308 2.532a.8.8 0 0 1-.58-.257a.9.9 0 0 1-.24-.61c0-.227.086-.446.24-.609a.8.8 0 0 1 1.168-.01q.118.121.182.28a.9.9 0 0 1-.176.952a.83.83 0 0 1-.594.254m-.046 1.304a.76.76 0 0 1-.207.525a.7.7 0 0 1-.502.217a.7.7 0 0 1-.502-.216a.76.76 0 0 1-.208-.526c0-.196.075-.385.208-.525a.7.7 0 0 1 .502-.217a.68.68 0 0 1 .502.217a.76.76 0 0 1 .207.525m-1.118 1.638a.65.65 0 0 1-.177.45a.6.6 0 0 1-.432.188a.6.6 0 0 1-.339-.107a.64.64 0 0 1-.266-.469a.67.67 0 0 1 .174-.513a.59.59 0 0 1 .938.097a.66.66 0 0 1 .102.354m-1.228 1.171a.56.56 0 0 1-.153.388a.52.52 0 0 1-.37.16a.5.5 0 0 1-.369-.16a.56.56 0 0 1 .17-.893a.51.51 0 0 1 .57.118a.56.56 0 0 1 .152.387M20.4 7.013c-.06.265-.219.496-.442.64a.96.96 0 0 1-.745.126a1 1 0 0 1-.611-.463a1.07 1.07 0 0 1-.121-.78c.06-.266.22-.496.442-.64a.96.96 0 0 1 .745-.126c.254.064.474.23.611.463c.138.233.181.513.12.78m-.473 2.666a.87.87 0 0 1-.388.476a.8.8 0 0 1-.592.084a.84.84 0 0 1-.494-.353a.9.9 0 0 1-.145-.607a.87.87 0 0 1 .388-.476a.8.8 0 0 1 .593-.083c.2.05.376.175.493.352c.119.177.17.393.145.607m-.873 2.133a.73.73 0 0 1-.33.408a.68.68 0 0 1-.505.07a.7.7 0 0 1-.42-.301a.77.77 0 0 1-.118-.52a.73.73 0 0 1 .333-.381a.68.68 0 0 1 .491-.063a.7.7 0 0 1 .41.288a.78.78 0 0 1 .13.5zm-1.128 1.618a.64.64 0 0 1-.269.396a.586.586 0 0 1-.835-.202a.66.66 0 0 1 .19-.878a.58.58 0 0 1 .46-.077a.6.6 0 0 1 .38.28a.64.64 0 0 1 .075.481m-1.236 1.134a.54.54 0 0 1-.241.286a.5.5 0 0 1-.665-.164a.56.56 0 0 1-.094-.37a.54.54 0 0 1 .242-.287a.497.497 0 0 1 .665.165a.56.56 0 0 1 .093.37m-1.237.714a.46.46 0 0 1-.205.257a.43.43 0 0 1-.582-.14a.48.48 0 0 1-.076-.327a.46.46 0 0 1 .205-.258a.43.43 0 0 1 .319-.047a.44.44 0 0 1 .264.19a.48.48 0 0 1 .075.325m6.455-4.628a.85.85 0 0 1-.473.444a.8.8 0 0 1-.64-.036a.83.83 0 0 1-.423-.499a.9.9 0 0 1 .037-.67a.85.85 0 0 1 .48-.443a.8.8 0 0 1 .638.042c.418.21.59.734.39 1.162zm-.863 2.114a.73.73 0 0 1-.41.339a.7.7 0 0 1-.52-.041a.74.74 0 0 1-.356-.399a.8.8 0 0 1-.005-.546a.73.73 0 0 1 .408-.383a.7.7 0 0 1 .546.03a.7.7 0 0 1 .37.426a.77.77 0 0 1-.033.574m-1.1 1.6a.63.63 0 0 1-.352.322a.6.6 0 0 1-.466-.027a.6.6 0 0 1-.317-.365a.67.67 0 0 1 .026-.492a.62.62 0 0 1 .353-.29a.6.6 0 0 1 .448.037a.64.64 0 0 1 .306.345a.68.68 0 0 1 .002.47m-1.227 1.133a.55.55 0 0 1-.305.28a.52.52 0 0 1-.404-.023a.53.53 0 0 1-.306-.317a.59.59 0 0 1 .15-.633a.53.53 0 0 1 .41-.133q.112.015.21.074a.54.54 0 0 1 .27.322a.6.6 0 0 1-.025.43m-1.228.695a.47.47 0 0 1-.26.241a.44.44 0 0 1-.35-.022a.47.47 0 0 1-.23-.274a.5.5 0 0 1 .13-.512a.45.45 0 0 1 .33-.118q.09.006.17.047a.47.47 0 0 1 .232.274c.04.12.031.25-.022.364m-1.155.352a.4.4 0 0 1-.185.197a.37.37 0 0 1-.265.026a.4.4 0 0 1-.219-.156a.4.4 0 0 1-.068-.266a.4.4 0 0 1 .077-.22a.376.376 0 0 1 .478-.123a.4.4 0 0 1 .202.23a.42.42 0 0 1-.02.312m.937 4.618a1.2 1.2 0 0 1-.539-.731a1.24 1.24 0 0 1 .11-.915q.115-.207.298-.355a1.12 1.12 0 0 1 1.286-.094c.267.163.461.428.541.738s.04.64-.114.919c-.156.276-.41.477-.705.56a1.12 1.12 0 0 1-.877-.122m-2.719-1.457a1 1 0 0 1-.46-.62a1.06 1.06 0 0 1 .097-.78a1 1 0 0 1 .597-.483a.94.94 0 0 1 .748.103c.226.14.39.365.459.628c.068.264.034.544-.095.781q-.098.177-.252.303a.94.94 0 0 1-1.094.077zm-2-1.751a.86.86 0 0 1-.391-.523a.9.9 0 0 1 .082-.657a.85.85 0 0 1 .506-.406a.8.8 0 0 1 .63.09a.86.86 0 0 1 .391.523a.9.9 0 0 1-.08.656a.85.85 0 0 1-.506.407a.8.8 0 0 1-.632-.09m-1.363-1.877a.72.72 0 0 1-.348-.451a.77.77 0 0 1 .255-.796a.7.7 0 0 1 .538-.141q.141.023.264.103c.336.21.454.667.254 1.01a.7.7 0 0 1-.427.345a.68.68 0 0 1-.536-.07m-.8-1.837a.63.63 0 0 1-.28-.38a.67.67 0 0 1 .052-.477a.6.6 0 0 1 .367-.297a.58.58 0 0 1 .46.06c.105.06.19.153.244.264a.65.65 0 0 1-.084.694a.61.61 0 0 1-.535.214a.6.6 0 0 1-.224-.078m-.364-1.695a.55.55 0 0 1-.237-.333a.56.56 0 0 1 .056-.41a.52.52 0 0 1 .316-.245a.5.5 0 0 1 .393.055a.52.52 0 0 1 .28.33a.57.57 0 0 1-.19.606a.5.5 0 0 1-.609-.003zM13.444 22a.95.95 0 0 1-.7-.298a1.03 1.03 0 0 1-.292-.73c0-.204.058-.402.165-.57a1 1 0 0 1 .44-.38a.94.94 0 0 1 .567-.06a.96.96 0 0 1 .502.28a1.07 1.07 0 0 1 .219 1.117a1 1 0 0 1-.359.463a.95.95 0 0 1-.542.178m-2.655-2.038a.87.87 0 0 1-.263-.606a.9.9 0 0 1 .226-.622a.83.83 0 0 1 .583-.274a.8.8 0 0 1 .6.236a.91.91 0 0 1 .026 1.237a.83.83 0 0 1-.585.27a.8.8 0 0 1-.597-.241zm-1.337-1.847a.73.73 0 0 1-.224-.518a.76.76 0 0 1 .197-.529a.7.7 0 0 1 .494-.23a.7.7 0 0 1 .506.201a.76.76 0 0 1 .027 1.037a.7.7 0 0 1-.494.23a.68.68 0 0 1-.506-.2zm-.782-1.838a.644.644 0 0 1 .164-1.03a.6.6 0 0 1 .464-.016a.64.64 0 0 1 .389.57a.64.64 0 0 1-.162.448a.6.6 0 0 1-.422.201a.57.57 0 0 1-.433-.173m-.309-1.675a.555.555 0 0 1-.027-.762a.505.505 0 0 1 .728-.028a.53.53 0 0 1 .17.374a.54.54 0 0 1-.143.387a.507.507 0 0 1-.728.03m.018-1.476a.46.46 0 0 1-.112-.503a.46.46 0 0 1 .404-.299a.44.44 0 0 1 .318.126a.48.48 0 0 1-.01.63a.437.437 0 0 1-.6.046m.619 8.15a.905.905 0 0 1 .218-1.218a.813.813 0 0 1 1.203.31a.91.91 0 0 1-.258 1.137a.82.82 0 0 1-.628.135a.82.82 0 0 1-.535-.364M7.679 19.44a.76.76 0 0 1-.12-.564a.76.76 0 0 1 .192-.388c.1-.106.228-.18.369-.21a.68.68 0 0 1 .541.107a.7.7 0 0 1 .2.207a.77.77 0 0 1 .016.838a.7.7 0 0 1-.322.278a.695.695 0 0 1-.876-.278zm-.782-1.8a.66.66 0 0 1 .164-.895a.6.6 0 0 1 .462-.1a.6.6 0 0 1 .392.271a.65.65 0 0 1 .007.716a.63.63 0 0 1-.392.277a.6.6 0 0 1-.463-.093a.6.6 0 0 1-.17-.177m-.327-1.666a.58.58 0 0 1 .103-.745q.104-.09.236-.121a.5.5 0 0 1 .403.083c.12.082.202.21.23.354a.58.58 0 0 1-.079.418a.5.5 0 0 1-.148.153a.52.52 0 0 1-.596.01a.5.5 0 0 1-.15-.152m.036-1.467a.49.49 0 0 1 .293-.739a.44.44 0 0 1 .346.073a.494.494 0 0 1 .034.77a.44.44 0 0 1-.468.075a.46.46 0 0 1-.205-.179m.291-1.218a.41.41 0 0 1-.106-.325a.42.42 0 0 1 .168-.296a.38.38 0 0 1 .575.164a.43.43 0 0 1-.133.511a.38.38 0 0 1-.504-.054M2.58 11.812a1.12 1.12 0 0 1 1.285.088q.184.146.3.355a1.23 1.23 0 0 1 .112.916c-.08.31-.275.574-.542.736a1.13 1.13 0 0 1-.882.119a1.1 1.1 0 0 1-.406-.21a1.2 1.2 0 0 1-.294-.357a1.26 1.26 0 0 1-.112-.916c.08-.309.274-.571.539-.73m2.573-1.714a.94.94 0 0 1 .74-.103c.25.07.465.24.596.475s.165.515.097.776a1.03 1.03 0 0 1-.46.623a.95.95 0 0 1-1.226-.218a1.06 1.06 0 0 1-.034-1.292a1 1 0 0 1 .287-.261m2.455-.933a.8.8 0 0 1 .624-.083c.214.06.396.205.507.403a.89.89 0 0 1-.304 1.184a.8.8 0 0 1-.632.084a.84.84 0 0 1-.505-.407a.884.884 0 0 1 .31-1.18m2.245-.286a.7.7 0 0 1 .534-.074c.18.05.335.172.43.34a.78.78 0 0 1-.054.82a.7.7 0 0 1-.47.28a.7.7 0 0 1-.276-.02a.72.72 0 0 1-.427-.346a.77.77 0 0 1-.067-.562a.74.74 0 0 1 .33-.447zm1.91.19a.59.59 0 0 1 .836.229a.67.67 0 0 1 .051.478a.63.63 0 0 1-.281.38a.6.6 0 0 1-.456.066a.6.6 0 0 1-.368-.286a.67.67 0 0 1-.057-.482a.64.64 0 0 1 .284-.384zm1.59.525a.5.5 0 0 1 .395-.052a.52.52 0 0 1 .315.251a.57.57 0 0 1 .054.41a.55.55 0 0 1-.236.333a.505.505 0 0 1-.714-.195a.57.57 0 0 1-.054-.413a.55.55 0 0 1 .24-.334M4.36 7.47a.94.94 0 0 1 .75.076q.174.097.298.255q.124.159.18.354c.076.262.05.544-.073.785q-.092.18-.242.31a.95.95 0 0 1-1.088.114a1.02 1.02 0 0 1-.479-.609c-.154-.552.136-1.123.654-1.285m2.455-.904a.8.8 0 0 1 .587.113a.88.88 0 0 1 .365.494a.9.9 0 0 1-.042.624a.86.86 0 0 1-.428.435a.8.8 0 0 1-.484 0a.8.8 0 0 1-.4-.282a.9.9 0 0 1-.152-.3q-.047-.165-.031-.337a.9.9 0 0 1 .3-.587a.8.8 0 0 1 .285-.16m2.2-.276a.67.67 0 0 1 .536.054a.73.73 0 0 1 .342.436a.77.77 0 0 1-.053.561a.7.7 0 0 1-.287.3a.68.68 0 0 1-.876-.18a.76.76 0 0 1-.157-.538a.75.75 0 0 1 .254-.498a.7.7 0 0 1 .241-.135m1.91.209a.58.58 0 0 1 .46.045a.63.63 0 0 1 .295.374a.66.66 0 0 1-.044.482a.6.6 0 0 1-.246.26a.59.59 0 0 1-.572.004a.64.64 0 0 1-.293-.375a.66.66 0 0 1 .192-.674a.6.6 0 0 1 .208-.116m1.555.552a.5.5 0 0 1 .382.053a.54.54 0 0 1 .242.316a.57.57 0 0 1-.034.403a.53.53 0 0 1-.205.224a.51.51 0 0 1-.492.014a.554.554 0 0 1-.217-.75a.54.54 0 0 1 .324-.26m1.209.762a.426.426 0 0 1 .512.12a.476.476 0 0 1-.077.689a.44.44 0 0 1-.172.077a.43.43 0 0 1-.512-.12a.47.47 0 0 1-.108-.363a.48.48 0 0 1 .186-.327a.4.4 0 0 1 .17-.076M6.634 4.28a.8.8 0 0 1 .616.204a.87.87 0 0 1 .293.605a.9.9 0 0 1-.205.64a.85.85 0 0 1-.577.302a.8.8 0 0 1-.612-.214a.91.91 0 0 1-.082-1.241a.84.84 0 0 1 .576-.297zm2.19-.267a.68.68 0 0 1 .517.18a.74.74 0 0 1 .243.51a.77.77 0 0 1-.172.54a.7.7 0 0 1-.488.255a.7.7 0 0 1-.514-.184a.766.766 0 0 1-.064-1.05a.7.7 0 0 1 .488-.251zm1.883.19c.153.004.3.067.412.178a.665.665 0 0 1 .06.868a.6.6 0 0 1-.381.239a.6.6 0 0 1-.412-.177a.666.666 0 0 1-.061-.868a.6.6 0 0 1 .382-.24m1.545.542a.53.53 0 0 1 .352.16a.58.58 0 0 1-.018.819a.513.513 0 0 1-.686.026a.56.56 0 0 1-.206-.405a.6.6 0 0 1 .151-.43a.54.54 0 0 1 .407-.17"/></svg>