<svg width="120" height="120" viewBox="0 0 120 120" fill="none" xmlns="http://www.w3.org/2000/svg">
<path opacity="0.48" d="M60.0001 78.9487C59.9186 93.3253 59.7552 115.324 59.9994 115.367C60.3628 115.367 60.7263 115.314 61.0783 115.209L94.8283 105.084C95.6007 104.853 96.2779 104.378 96.7592 103.731C97.2405 103.083 97.5003 102.298 97.5001 101.492V66.7818L60.0001 78.9487Z" fill="#C4CDD5"/>
<path opacity="0.48" d="M59.9217 78.9233L22.5002 66.7819L22.5 101.492C22.4998 102.298 22.7597 103.084 23.241 103.731C23.7223 104.378 24.3994 104.853 25.1719 105.084L58.9219 115.209C59.2734 115.314 59.6365 115.367 59.9996 115.367C59.7549 115.345 59.84 93.307 59.9217 78.9233Z" fill="#DFE3E8"/>
<path opacity="0.8" d="M60 78.9487L22.5001 66.7819L12.9844 80.8894C12.8218 81.1301 12.7173 81.4054 12.6792 81.6934C12.6412 81.9815 12.6706 82.2744 12.7651 82.5492C12.8597 82.8239 13.0168 83.0729 13.2241 83.2765C13.4313 83.4801 13.6831 83.6328 13.9594 83.7225L47.7001 94.6837C48.0866 94.8094 48.5036 94.8061 48.8881 94.6742C49.2726 94.5423 49.6039 94.289 49.8319 93.9525L60 78.9487Z" fill="url(#paint0_linear_2734_145270)"/>
<path opacity="0.8" d="M97.5 66.7819L60 78.9487L70.1681 93.9525C70.3962 94.289 70.7274 94.5423 71.1119 94.6742C71.4964 94.8061 71.9134 94.8094 72.3 94.6837L106.041 83.7225C106.317 83.6328 106.569 83.4801 106.776 83.2765C106.983 83.0729 107.14 82.8239 107.235 82.5492C107.329 82.2744 107.359 81.9815 107.321 81.6934C107.283 81.4054 107.178 81.1301 107.016 80.8894L97.5 66.7819Z" fill="url(#paint1_linear_2734_145270)"/>
<path opacity="0.64" d="M50.92 41.8196C50.6915 41.4841 50.3603 41.2318 49.9763 41.1006C49.5922 40.9695 49.1759 40.9664 48.79 41.0921L15.0475 52.0552C14.7709 52.1443 14.5189 52.2966 14.3114 52.4999C14.1039 52.7033 13.9466 52.9523 13.852 53.227C13.7574 53.5017 13.728 53.7947 13.7663 54.0827C13.8046 54.3708 13.9094 54.6459 14.0725 54.8864L22.4968 67.3777L59.9968 55.1696L50.92 41.8196Z" fill="url(#paint2_linear_2734_145270)"/>
<path opacity="0.64" d="M105.924 54.2906C106.087 54.0499 106.191 53.7748 106.229 53.487C106.267 53.1992 106.237 52.9065 106.142 52.632C106.048 52.3575 105.891 52.1087 105.684 51.9053C105.477 51.7018 105.225 51.5491 104.949 51.4594L71.2069 40.4963C70.8209 40.3706 70.4047 40.3737 70.0206 40.5048C69.6365 40.636 69.3053 40.8883 69.0769 41.2238L60 54.5738L97.5 66.7819L105.924 54.2906Z" fill="url(#paint3_linear_2734_145270)"/>
<path opacity="0.48" d="M97.5 66.7819L60 54.5737L22.5 66.7819L60 78.9487L97.5 66.7819Z" fill="#C4CDD5"/>
<path opacity="0.48" d="M60 66.6763V55L22.5 67.2081L60 79.375V66.6763Z" fill="#C4CDD5"/>
<path d="M57.9995 12.8081C60.0283 1.31999 77.6101 2.06249 67.3745 12.8081H57.9995Z" fill="#919EAB" fill-opacity="0.12"/>
<path d="M57.9995 15.7181C60.0283 27.2044 77.6101 26.4637 67.3745 15.7181H57.9995Z" fill="#919EAB" fill-opacity="0.12"/>
<path d="M52.4662 59.9587C51.7208 59.4742 51.016 58.9299 50.3587 58.3312C49.9902 58.0092 49.5104 57.844 49.0218 57.8708C48.5331 57.8977 48.0744 58.1146 47.7434 58.4751C47.4125 58.8357 47.2357 59.3113 47.2507 59.8005C47.2656 60.2896 47.4713 60.7535 47.8237 61.0931C48.5905 61.7981 49.4549 62.4694 50.4149 63.0975C50.8311 63.3607 51.3341 63.4496 51.8154 63.3451C52.2966 63.2405 52.7173 62.9508 52.9867 62.5386C53.2561 62.1263 53.3525 61.6247 53.2551 61.142C53.1577 60.6593 52.8743 60.2342 52.4662 59.9587ZM46.6237 54.1987C46.0908 53.4807 45.618 52.72 45.2099 51.9244C44.9844 51.481 44.592 51.1455 44.1191 50.9914C43.6461 50.8374 43.1314 50.8776 42.688 51.1031C42.2447 51.3286 41.9091 51.721 41.7551 52.194C41.6011 52.6669 41.6413 53.1817 41.8668 53.625C42.343 54.5587 42.9205 55.4944 43.6049 56.4225C43.9035 56.8128 44.3433 57.0703 44.8298 57.1396C45.3164 57.2089 45.8106 57.0844 46.2063 56.793C46.6019 56.5015 46.8674 56.0664 46.9454 55.5812C47.0235 55.096 46.9079 54.5996 46.6237 54.1987ZM43.8824 46.5469C43.9012 45.7912 44.0118 45.0581 44.2143 44.355C44.2821 44.1182 44.3027 43.8704 44.2747 43.6258C44.2468 43.3811 44.171 43.1443 44.0515 42.9289C43.9321 42.7135 43.7714 42.5238 43.5786 42.3705C43.3859 42.2173 43.1648 42.1034 42.928 42.0356C42.6913 41.9678 42.4435 41.9472 42.1988 41.9752C41.9541 42.0031 41.7173 42.0789 41.502 42.1984C41.2866 42.3178 41.0969 42.4785 40.9436 42.6713C40.7903 42.864 40.6765 43.0851 40.6087 43.3219C40.3187 44.3414 40.1586 45.3935 40.1324 46.4531C40.12 46.9504 40.3056 47.4322 40.6485 47.7927C40.9913 48.1531 41.4633 48.3626 41.9605 48.375C42.4578 48.3874 42.9397 48.2018 43.3001 47.859C43.6605 47.5161 43.87 47.0441 43.8824 46.5469ZM46.7662 40.2844C47.248 39.8381 47.788 39.4256 48.3787 39.0525C48.587 38.9211 48.7674 38.75 48.9096 38.5489C49.0517 38.3479 49.1529 38.1207 49.2073 37.8806C49.2617 37.6404 49.2683 37.3918 49.2267 37.1491C49.185 36.9064 49.096 36.6742 48.9646 36.4659C48.8332 36.2576 48.6621 36.0772 48.4611 35.935C48.26 35.7929 48.0329 35.6917 47.7927 35.6373C47.5525 35.5829 47.3039 35.5763 47.0612 35.6179C46.8185 35.6596 46.5864 35.7486 46.378 35.88C45.6086 36.3634 44.8855 36.917 44.218 37.5337C43.8625 37.8739 43.6549 38.3402 43.64 38.832C43.6252 39.3239 43.8043 39.8018 44.1387 40.1628C44.4731 40.5238 44.936 40.7389 45.4276 40.7616C45.9191 40.7843 46.3999 40.6129 46.7662 40.2844ZM53.7393 37.05C54.729 36.8692 55.7302 36.7589 56.7355 36.72C57.2207 36.6825 57.6723 36.4582 57.9952 36.0942C58.3181 35.7302 58.487 35.2551 58.4663 34.7689C58.4456 34.2828 58.237 33.8237 57.8844 33.4885C57.5317 33.1532 57.0627 32.968 56.5762 32.9719C55.3387 33.0244 54.1649 33.1575 53.0568 33.3619C52.5677 33.4524 52.1346 33.7334 51.8528 34.1433C51.571 34.5531 51.4635 35.0581 51.554 35.5472C51.6445 36.0362 51.9256 36.4693 52.3354 36.7512C52.7452 37.033 53.2502 37.1405 53.7393 37.05ZM63.5118 36.9394C65.1112 36.9581 66.5999 36.9019 67.9818 36.78C68.4726 36.7303 68.924 36.4892 69.2382 36.1089C69.5524 35.7287 69.7042 35.2399 69.6605 34.7486C69.6168 34.2572 69.3813 33.8029 69.005 33.484C68.6286 33.1651 68.1418 33.0074 67.6499 33.045C66.3843 33.1556 65.0212 33.2081 63.5549 33.1894C63.0576 33.1836 62.5785 33.3757 62.2228 33.7233C61.8671 34.0709 61.6641 34.5455 61.6584 35.0428C61.6526 35.5401 61.8447 36.0193 62.1923 36.3749C62.5399 36.7306 63.0145 36.9336 63.5118 36.9394ZM74.1449 35.6306C76.0012 35.0625 77.5687 34.335 78.8812 33.5006C79.0889 33.3683 79.2685 33.1963 79.4097 32.9945C79.5509 32.7928 79.651 32.5652 79.7043 32.3247C79.7576 32.0843 79.763 31.8357 79.7202 31.5932C79.6774 31.3507 79.5873 31.1189 79.4549 30.9112C79.3226 30.7035 79.1506 30.5239 78.9489 30.3827C78.7471 30.2415 78.5195 30.1414 78.2791 30.0881C78.0386 30.0348 77.79 30.0294 77.5475 30.0722C77.305 30.115 77.0732 30.2051 76.8655 30.3375C75.6756 31.0753 74.3915 31.6493 73.048 32.0437C72.5724 32.1892 72.174 32.5176 71.9405 32.9568C71.707 33.396 71.6576 33.91 71.803 34.3856C71.9485 34.8613 72.277 35.2596 72.7161 35.4931C73.1553 35.7266 73.6693 35.7761 74.1449 35.6306ZM83.6887 28.2525C84.5323 26.5001 84.9236 24.5643 84.8268 22.6219C84.8153 22.3759 84.7556 22.1346 84.6508 21.9117C84.5461 21.6888 84.3986 21.4887 84.2165 21.3229C84.0345 21.1571 83.8216 21.0287 83.5899 20.9451C83.3583 20.8616 83.1125 20.8245 82.8665 20.8359C82.6205 20.8474 82.3792 20.9072 82.1563 21.0119C81.9334 21.1166 81.7334 21.2642 81.5675 21.4462C81.4017 21.6282 81.2733 21.8411 81.1898 22.0728C81.1062 22.3044 81.0691 22.5503 81.0805 22.7962C81.148 24.1154 80.8837 25.4305 80.3118 26.6212C80.1204 27.0655 80.108 27.5665 80.277 28.0197C80.4461 28.4729 80.7836 28.8434 81.2192 29.0538C81.6547 29.2642 82.1547 29.2983 82.6148 29.149C83.0749 28.9997 83.4596 28.6785 83.6887 28.2525ZM82.4943 15.9919C81.1274 14.145 79.273 12.8587 77.2518 12.4444C76.7721 12.3632 76.2796 12.4714 75.8782 12.7463C75.4767 13.0212 75.1977 13.4412 75.1 13.9178C75.0022 14.3944 75.0933 14.8904 75.3542 15.3011C75.615 15.7118 76.0251 16.0052 76.498 16.1194C77.6643 16.3575 78.6918 17.1581 79.4812 18.225C79.6278 18.4228 79.812 18.5899 80.0231 18.7165C80.2343 18.8432 80.4684 18.927 80.712 18.9633C80.9555 18.9995 81.2039 18.9874 81.4428 18.9276C81.6817 18.8678 81.9065 18.7616 82.1043 18.615C82.3021 18.4684 82.4692 18.2842 82.5958 18.073C82.7225 17.8618 82.8064 17.6278 82.8426 17.3842C82.8788 17.1406 82.8667 16.8923 82.8069 16.6534C82.7472 16.4145 82.6409 16.1897 82.4943 15.9919Z" fill="#919EAB" fill-opacity="0.24"/>
<path d="M57.8305 16.1569H70.3855C70.8828 16.1569 71.3597 15.9593 71.7114 15.6077C72.063 15.2561 72.2605 14.7791 72.2605 14.2819C72.2605 13.7846 72.063 13.3077 71.7114 12.956C71.3597 12.6044 70.8828 12.4069 70.3855 12.4069H57.8305C57.3478 12.4285 56.8919 12.6354 56.5579 12.9847C56.2239 13.334 56.0375 13.7986 56.0375 14.2819C56.0375 14.7651 56.2239 15.2298 56.5579 15.579C56.8919 15.9283 57.3478 16.1353 57.8305 16.1569Z" fill="#919EAB" fill-opacity="0.24"/>
<defs>
<linearGradient id="paint0_linear_2734_145270" x1="22.7494" y1="66.7669" x2="27.9905" y2="101.442" gradientUnits="userSpaceOnUse">
<stop stop-color="#F4F6F8"/>
<stop offset="1" stop-color="#C4CDD5"/>
</linearGradient>
<linearGradient id="paint1_linear_2734_145270" x1="60.1519" y1="78.8212" x2="99.6838" y2="101.557" gradientUnits="userSpaceOnUse">
<stop stop-color="#F4F6F8"/>
<stop offset="1" stop-color="#C4CDD5"/>
</linearGradient>
<linearGradient id="paint2_linear_2734_145270" x1="17.5881" y1="60.1008" x2="23.245" y2="33.434" gradientUnits="userSpaceOnUse">
<stop stop-color="#F4F6F8"/>
<stop offset="1" stop-color="#C4CDD5"/>
</linearGradient>
<linearGradient id="paint3_linear_2734_145270" x1="70.0387" y1="40.0444" x2="72.0615" y2="72.9595" gradientUnits="userSpaceOnUse">
<stop stop-color="#F4F6F8"/>
<stop offset="1" stop-color="#C4CDD5"/>
</linearGradient>
</defs>
</svg>
